<?xml version="1.0" encoding="utf-8"?>
<!-- Generator: Adobe Illustrator 16.0.0, SVG Export Plug-In . SVG Version: 6.00 Build 0)  -->
<!DOCTYPE svg PUBLIC "-//W3C//DTD SVG 1.1//EN" "http://www.w3.org/Graphics/SVG/1.1/DTD/svg11.dtd">
<svg version="1.1" id="Capa_1" xmlns="http://www.w3.org/2000/svg" xmlns:xlink="http://www.w3.org/1999/xlink" x="0px" y="0px"
	 width="425.197px" height="283.464px" viewBox="0 0 425.197 283.464" enable-background="new 0 0 425.197 283.464"
	 xml:space="preserve">
<g>
	<g>
		<ellipse fill="#303031" cx="209.383" cy="118.408" rx="51.182" ry="49.164"/>
		<path fill="#FFFFFF" d="M238.478,89.983l3.811-9.236c0,0.001-1.22-1.021-2.395-1.869c-1.003-0.723-1.956-1.313-2.105-1.419
			l-5.134,12.524H238.478z"/>
		<path fill="#FFFFFF" d="M210.575,130.462l-4.796,11.711c-0.33,0.809-0.622,1.662-0.878,2.578
			c-0.255,0.916-0.493,1.848-0.714,2.797c-0.257-0.949-0.529-1.881-0.822-2.797s-0.586-1.769-0.877-2.578l-25.414-61.901
			c-0.426,0.285-1.663,1.325-2.577,2.135c-1.081,0.959-1.72,1.639-1.72,1.638l28.833,69.864h4.992l3.973-9.631V130.462z"/>
		<path fill="#EA5B13" d="M210.575,89.983v77.589c0,0,2.12-0.094,2.847-0.152c0.686-0.051,2.8-0.283,2.8-0.283v-35.205h27.927
			v-4.662h-27.927V94.644h37.979c0,0-1.174-1.938-1.58-2.558c-0.358-0.546-1.472-2.104-1.472-2.104H210.575z"/>
	</g>
</g>
</svg>
